<svg xmlns="http://www.w3.org/2000/svg" width="45" height="19" viewBox="0 0 45 19" fill="none">
  <path d="M16.6982 6.84092L12.2101 9.38255C12.0418 9.4771 11.9384 9.65309 11.9384 9.84313V14.9292C11.9384 15.1192 12.0418 15.2943 12.2101 15.3898L16.6992 17.9333C16.8665 18.0278 17.0742 18.0278 17.2415 17.9333L21.7297 15.3898C21.8962 15.2943 21.9995 15.1192 21.9995 14.9292V9.84313C21.9995 9.65309 21.8962 9.47803 21.7279 9.38255L17.2406 6.84092C17.1565 6.79318 17.0623 6.76978 16.969 6.76978C16.8748 6.76978 16.7815 6.79318 16.6973 6.84092M39.7903 11.4196L39.0421 11.8427C39.0138 11.8586 38.9973 11.8877 38.9973 11.9195V12.7676C38.9973 12.7995 39.0147 12.8285 39.0421 12.8444L39.7903 13.2685C39.8187 13.2844 39.8525 13.2844 39.8808 13.2685L40.629 12.8444C40.6565 12.8285 40.6738 12.7995 40.6738 12.7676V11.9195C40.6738 11.8877 40.6565 11.8586 40.6281 11.8427L39.8799 11.4196C39.8662 11.4112 39.8507 11.4074 39.8351 11.4074C39.8196 11.4074 39.804 11.4112 39.7903 11.4196Z" fill="#388E3C"/>
  <path d="M33.6622 1.45063L31.4771 0.202753C31.4085 0.163435 31.3243 0.164371 31.2567 0.205561C31.189 0.246752 31.1469 0.320706 31.1469 0.401215L31.146 7.93902L29.131 6.79787C29.0469 6.75012 28.9527 6.72672 28.8594 6.72672C28.7661 6.72672 28.6719 6.75012 28.5877 6.79787H28.5886L24.1005 9.33949C23.9322 9.43404 23.8288 9.61004 23.8288 9.79914V14.8852C23.8288 15.0752 23.9322 15.2503 24.1005 15.3458L28.5895 17.8893C28.7569 17.9838 28.9646 17.9838 29.1319 17.8893L33.6201 15.3458C33.7866 15.2512 33.8899 15.0752 33.8899 14.8852V1.84755C33.8899 1.68279 33.8021 1.53114 33.6622 1.45063ZM31.0234 13.7085L28.9838 14.8646C28.9078 14.9077 28.8136 14.9077 28.7377 14.8646L26.6971 13.7085C26.6194 13.6654 26.5728 13.5849 26.5728 13.4988V11.1865C26.5728 11.1004 26.6194 11.0208 26.6962 10.9768L28.7368 9.8216C28.7752 9.80007 28.8164 9.78977 28.8594 9.78977C28.9024 9.78977 28.9444 9.80101 28.9828 9.8216L31.0225 10.9768C31.0993 11.0208 31.146 11.1013 31.146 11.1874V13.4997C31.146 13.5849 31.0993 13.6654 31.0234 13.7085Z" fill="#37474F"/>
  <path d="M16.6982 6.84092L11.9384 14.9292C11.9384 15.1192 12.0418 15.2943 12.2101 15.3898L16.6992 17.9333C16.8665 18.0278 17.0742 18.0278 17.2415 17.9333L21.9995 9.84313C21.9995 9.65309 21.8962 9.47803 21.7279 9.38255L17.2406 6.84092C17.1565 6.79318 17.0623 6.76978 16.969 6.76978C16.8748 6.76978 16.7815 6.79318 16.6973 6.84092" fill="#2E7D32"/>
  <path d="M16.6982 6.84092L12.2101 9.38255C12.0418 9.4771 11.9384 9.65309 11.9384 9.84313L16.6982 17.9333C16.8656 18.0278 17.0733 18.0278 17.2406 17.9333L21.7288 15.3898C21.8962 15.2943 21.9995 15.1192 21.9995 14.9292L17.2406 6.84092C17.1565 6.79318 17.0623 6.76978 16.969 6.76978C16.8748 6.76978 16.7815 6.79318 16.6973 6.84092" fill="#4CAF50"/>
  <path d="M44.594 9.08836L40.1068 6.54673C40.0226 6.49899 39.9284 6.47559 39.8351 6.47559C39.7418 6.47559 39.6476 6.49899 39.5635 6.54673L35.0762 9.08836C34.9088 9.18291 34.8046 9.36265 34.8046 9.55924V14.6247C34.8046 14.8203 34.9088 15.001 35.0762 15.0956L39.5653 17.6391C39.7336 17.7346 39.9394 17.7346 40.1077 17.6391L42.1775 16.4661C42.3669 16.3584 42.3659 16.0804 42.1757 15.9737L37.672 13.4583C37.5961 13.4143 37.5485 13.3328 37.5485 13.2448V10.9363C37.5485 10.8502 37.5942 10.7706 37.6674 10.7294L39.7116 9.57234H39.7107C39.7491 9.55081 39.7912 9.54051 39.8342 9.54051C39.8772 9.54051 39.9193 9.55175 39.9577 9.57234L42.0019 10.7303C42.0751 10.7715 42.1208 10.8511 42.1208 10.9372V12.8208C42.1208 12.9013 42.1629 12.9762 42.2315 13.0164C42.3001 13.0557 42.3842 13.0557 42.4528 13.0155L44.6462 11.7114C44.7815 11.6309 44.8657 11.4821 44.8657 11.3211V9.56111C44.8657 9.36358 44.7614 9.18291 44.594 9.08836ZM10.7521 9.08836L6.26488 6.54673C6.18074 6.49899 6.08653 6.47559 5.99323 6.47559C5.89994 6.47559 5.80573 6.49899 5.72159 6.54673L1.23433 9.08836C1.06695 9.18291 0.962685 9.36265 0.962685 9.55924V16.5475C0.962685 16.628 1.00476 16.7029 1.07336 16.7432C1.14196 16.7825 1.2261 16.7825 1.2947 16.7422L3.48802 15.4382C3.62339 15.3577 3.70662 15.2088 3.70662 15.0478V10.9354C3.70662 10.8492 3.75235 10.7697 3.82553 10.7285L5.86976 9.5714C5.90817 9.54987 5.95025 9.53958 5.99323 9.53958C6.03622 9.53958 6.0783 9.55081 6.11671 9.5714L8.16094 10.7294C8.23412 10.7706 8.27985 10.8502 8.27985 10.9363V15.0488C8.27985 15.2098 8.36308 15.3586 8.49936 15.4391L10.6927 16.7432C10.7613 16.7834 10.8454 16.7834 10.914 16.7441C10.9817 16.7029 11.0238 16.628 11.0238 16.5475V9.56017C11.0238 9.36358 10.9195 9.18291 10.7521 9.08836Z" fill="#37474F"/>
</svg>